{
	"asset":{
		"generator":"Khronos glTF Blender I/O v4.2.70",
		"version":"2.0"
	},
	"scene":0,
	"scenes":[
		{
			"name":"Scene",
			"nodes":[
				18
			]
		}
	],
	"nodes":[
		{
			"mesh":0,
			"name":"Biceps"
		},
		{
			"mesh":1,
			"name":"Forearms"
		},
		{
			"mesh":2,
			"name":"Shoulders"
		},
		{
			"mesh":3,
			"name":"Triceps"
		},
		{
			"children":[
				0,
				1,
				2,
				3
			],
			"mesh":4,
			"name":"Arms",
			"rotation":[
				-0.4709415137767792,
				0.5279533863067627,
				0.5226871967315674,
				0.4756864011287689
			]
		},
		{
			"mesh":5,
			"name":"Head",
			"rotation":[
				-0.4709415137767792,
				0.5279533863067627,
				0.5226871967315674,
				0.4756864011287689
			]
		},
		{
			"mesh":6,
			"name":"Adductors"
		},
		{
			"mesh":7,
			"name":"Calves"
		},
		{
			"mesh":8,
			"name":"Glutes"
		},
		{
			"mesh":9,
			"name":"Hamstrings"
		},
		{
			"mesh":10,
			"name":"Quads"
		},
		{
			"children":[
				6,
				7,
				8,
				9,
				10
			],
			"mesh":11,
			"name":"Legs",
			"rotation":[
				-0.4709415137767792,
				0.5279533863067627,
				0.5226871967315674,
				0.4756864011287689
			]
		},
		{
			"mesh":12,
			"name":"Chest"
		},
		{
			"mesh":13,
			"name":"Core"
		},
		{
			"mesh":14,
			"name":"Lats"
		},
		{
			"mesh":15,
			"name":"Rhomboids"
		},
		{
			"mesh":16,
			"name":"Traps"
		},
		{
			"children":[
				12,
				13,
				14,
				15,
				16
			],
			"name":"Torso",
			"rotation":[
				-0.4709415137767792,
				0.5279533863067627,
				0.5226871967315674,
				0.4756864011287689
			]
		},
		{
			"children":[
				4,
				5,
				11,
				17
			],
			"name":"Root"
		}
	],
	"meshes":[
		{
			"name":"Cube_Material.001_0.023",
			"primitives":[
				{
					"attributes":{
						"POSITION":0,
						"NORMAL":1,
						"TEXCOORD_0":2
					},
					"indices":3
				}
			]
		},
		{
			"name":"Cube_Material.001_0.022",
			"primitives":[
				{
					"attributes":{
						"POSITION":4,
						"NORMAL":5,
						"TEXCOORD_0":6
					},
					"indices":7
				}
			]
		},
		{
			"name":"Cube_Material.001_0.021",
			"primitives":[
				{
					"attributes":{
						"POSITION":8,
						"NORMAL":9,
						"TEXCOORD_0":10
					},
					"indices":11
				}
			]
		},
		{
			"name":"Cube_Material.001_0.024",
			"primitives":[
				{
					"attributes":{
						"POSITION":12,
						"NORMAL":13,
						"TEXCOORD_0":14
					},
					"indices":15
				}
			]
		},
		{
			"name":"Cube_Material.001_0.009",
			"primitives":[
				{
					"attributes":{
						"POSITION":16,
						"NORMAL":17,
						"TEXCOORD_0":18
					},
					"indices":19
				}
			]
		},
		{
			"name":"Cube_Material.001_0.001",
			"primitives":[
				{
					"attributes":{
						"POSITION":20,
						"NORMAL":21,
						"TEXCOORD_0":22
					},
					"indices":23
				}
			]
		},
		{
			"name":"Cube_Material.001_0.015",
			"primitives":[
				{
					"attributes":{
						"POSITION":24,
						"NORMAL":25,
						"TEXCOORD_0":26
					},
					"indices":27
				}
			]
		},
		{
			"name":"Cube_Material.001_0.010",
			"primitives":[
				{
					"attributes":{
						"POSITION":28,
						"NORMAL":29,
						"TEXCOORD_0":30
					},
					"indices":31
				}
			]
		},
		{
			"name":"Cube_Material.001_0.013",
			"primitives":[
				{
					"attributes":{
						"POSITION":32,
						"NORMAL":33,
						"TEXCOORD_0":34
					},
					"indices":35
				}
			]
		},
		{
			"name":"Cube_Material.001_0.011",
			"primitives":[
				{
					"attributes":{
						"POSITION":36,
						"NORMAL":37,
						"TEXCOORD_0":38
					},
					"indices":39
				}
			]
		},
		{
			"name":"Cube_Material.001_0.012",
			"primitives":[
				{
					"attributes":{
						"POSITION":40,
						"NORMAL":41,
						"TEXCOORD_0":42
					},
					"indices":43
				}
			]
		},
		{
			"name":"Cube_Material.001_0",
			"primitives":[
				{
					"attributes":{
						"POSITION":44,
						"NORMAL":45,
						"TEXCOORD_0":46
					},
					"indices":47
				}
			]
		},
		{
			"name":"Cube_Material.001_0.017",
			"primitives":[
				{
					"attributes":{
						"POSITION":48,
						"NORMAL":49,
						"TEXCOORD_0":50
					},
					"indices":51
				}
			]
		},
		{
			"name":"Cube_Material.001_0.016",
			"primitives":[
				{
					"attributes":{
						"POSITION":52,
						"NORMAL":53,
						"TEXCOORD_0":54
					},
					"indices":55
				}
			]
		},
		{
			"name":"Cube_Material.001_0.018",
			"primitives":[
				{
					"attributes":{
						"POSITION":56,
						"NORMAL":57,
						"TEXCOORD_0":58
					},
					"indices":59
				}
			]
		},
		{
			"name":"Cube_Material.001_0.019",
			"primitives":[
				{
					"attributes":{
						"POSITION":60,
						"NORMAL":61,
						"TEXCOORD_0":62
					},
					"indices":27
				}
			]
		},
		{
			"name":"Cube_Material.001_0.020",
			"primitives":[
				{
					"attributes":{
						"POSITION":63,
						"NORMAL":64,
						"TEXCOORD_0":65
					},
					"indices":27
				}
			]
		}
	],
	"accessors":[
		{
			"bufferView":0,
			"componentType":5126,
			"count":60,
			"max":[
				0.8633490800857544,
				0.1834016740322113,
				0.5554215908050537
			],
			"min":[
				-0.8633490800857544,
				-0.11464127898216248,
				0.004162246827036142
			],
			"type":"VEC3"
		},
		{
			"bufferView":1,
			"componentType":5126,
			"count":60,
			"type":"VEC3"
		},
		{
			"bufferView":2,
			"componentType":5126,
			"count":60,
			"type":"VEC2"
		},
		{
			"bufferView":3,
			"componentType":5123,
			"count":84,
			"type":"SCALAR"
		},
		{
			"bufferView":4,
			"componentType":5126,
			"count":50,
			"max":[
				0.9143428802490234,
				0.15673483908176422,
				0.05592460185289383
			],
			"min":[
				-0.9143428802490234,
				-0.2831701338291168,
				-0.6922699213027954
			],
			"type":"VEC3"
		},
		{
			"bufferView":5,
			"componentType":5126,
			"count":50,
			"type":"VEC3"
		},
		{
			"bufferView":6,
			"componentType":5126,
			"count":50,
			"type":"VEC2"
		},
		{
			"bufferView":7,
			"componentType":5123,
			"count":72,
			"type":"SCALAR"
		},
		{
			"bufferView":8,
			"componentType":5126,
			"count":104,
			"max":[
				0.7468404173851013,
				0.2660559117794037,
				1.0283262729644775
			],
			"min":[
				-0.7468404173851013,
				-0.14959749579429626,
				0.5370906591415405
			],
			"type":"VEC3"
		},
		{
			"bufferView":9,
			"componentType":5126,
			"count":104,
			"type":"VEC3"
		},
		{
			"bufferView":10,
			"componentType":5126,
			"count":104,
			"type":"VEC2"
		},
		{
			"bufferView":11,
			"componentType":5123,
			"count":156,
			"type":"SCALAR"
		},
		{
			"bufferView":12,
			"componentType":5126,
			"count":92,
			"max":[
				0.8633490800857544,
				0.21843351423740387,
				0.5604890584945679
			],
			"min":[
				-0.8633490800857544,
				-0.09928695857524872,
				-0.05640313774347305
			],
			"type":"VEC3"
		},
		{
			"bufferView":13,
			"componentType":5126,
			"count":92,
			"type":"VEC3"
		},
		{
			"bufferView":14,
			"componentType":5126,
			"count":92,
			"type":"VEC2"
		},
		{
			"bufferView":15,
			"componentType":5123,
			"count":132,
			"type":"SCALAR"
		},
		{
			"bufferView":16,
			"componentType":5126,
			"count":234,
			"max":[
				0.9197437763214111,
				-0.12309540063142776,
				-0.6513810157775879
			],
			"min":[
				-0.9197437763214111,
				-0.4291882812976837,
				-1.0244184732437134
			],
			"type":"VEC3"
		},
		{
			"bufferView":17,
			"componentType":5126,
			"count":234,
			"type":"VEC3"
		},
		{
			"bufferView":18,
			"componentType":5126,
			"count":234,
			"type":"VEC2"
		},
		{
			"bufferView":19,
			"componentType":5123,
			"count":324,
			"type":"SCALAR"
		},
		{
			"bufferView":20,
			"componentType":5126,
			"count":186,
			"max":[
				0.24999916553497314,
				0.19047218561172485,
				1.816465139389038
			],
			"min":[
				-0.24999916553497314,
				-0.3794396221637726,
				0.9395244121551514
			],
			"type":"VEC3"
		},
		{
			"bufferView":21,
			"componentType":5126,
			"count":186,
			"type":"VEC3"
		},
		{
			"bufferView":22,
			"componentType":5126,
			"count":186,
			"type":"VEC2"
		},
		{
			"bufferView":23,
			"componentType":5123,
			"count":276,
			"type":"SCALAR"
		},
		{
			"bufferView":24,
			"componentType":5126,
			"count":16,
			"max":[
				0.22332721948623657,
				0.161742702126503,
				-0.6849300861358643
			],
			"min":[
				-0.22332721948623657,
				-0.4194124937057495,
				-1.9021904468536377
			],
			"type":"VEC3"
		},
		{
			"bufferView":25,
			"componentType":5126,
			"count":16,
			"type":"VEC3"
		},
		{
			"bufferView":26,
			"componentType":5126,
			"count":16,
			"type":"VEC2"
		},
		{
			"bufferView":27,
			"componentType":5123,
			"count":24,
			"type":"SCALAR"
		},
		{
			"bufferView":28,
			"componentType":5126,
			"count":32,
			"max":[
				0.564407467842102,
				0.26918137073516846,
				-1.7701305150985718
			],
			"min":[
				-0.564407467842102,
				0.07169254869222641,
				-2.5157229900360107
			],
			"type":"VEC3"
		},
		{
			"bufferView":29,
			"componentType":5126,
			"count":32,
			"type":"VEC3"
		},
		{
			"bufferView":30,
			"componentType":5126,
			"count":32,
			"type":"VEC2"
		},
		{
			"bufferView":31,
			"componentType":5123,
			"count":48,
			"type":"SCALAR"
		},
		{
			"bufferView":32,
			"componentType":5126,
			"count":30,
			"max":[
				0.39562147855758667,
				0.22513480484485626,
				-0.18102701008319855
			],
			"min":[
				-0.39562147855758667,
				0.07044717669487,
				-0.7591596841812134
			],
			"type":"VEC3"
		},
		{
			"bufferView":33,
			"componentType":5126,
			"count":30,
			"type":"VEC3"
		},
		{
			"bufferView":34,
			"componentType":5126,
			"count":30,
			"type":"VEC2"
		},
		{
			"bufferView":35,
			"componentType":5123,
			"count":42,
			"type":"SCALAR"
		},
		{
			"bufferView":36,
			"componentType":5126,
			"count":38,
			"max":[
				0.5502822995185852,
				0.161742702126503,
				-0.5297423005104065
			],
			"min":[
				-0.5502822995185852,
				-0.10236011445522308,
				-1.8541758060455322
			],
			"type":"VEC3"
		},
		{
			"bufferView":37,
			"componentType":5126,
			"count":38,
			"type":"VEC3"
		},
		{
			"bufferView":38,
			"componentType":5126,
			"count":38,
			"type":"VEC2"
		},
		{
			"bufferView":39,
			"componentType":5123,
			"count":54,
			"type":"SCALAR"
		},
		{
			"bufferView":40,
			"componentType":5126,
			"count":46,
			"max":[
				0.5502822995185852,
				0.0850437581539154,
				-0.4864971339702606
			],
			"min":[
				-0.5502822995185852,
				-0.4194124937057495,
				-1.9131734371185303
			],
			"type":"VEC3"
		},
		{
			"bufferView":41,
			"componentType":5126,
			"count":46,
			"type":"VEC3"
		},
		{
			"bufferView":42,
			"componentType":5126,
			"count":46,
			"type":"VEC2"
		},
		{
			"bufferView":43,
			"componentType":5123,
			"count":66,
			"type":"SCALAR"
		},
		{
			"bufferView":44,
			"componentType":5126,
			"count":280,
			"max":[
				0.7458848357200623,
				0.26918137073516846,
				-0.6849300861358643
			],
			"min":[
				-0.7458848357200623,
				-0.4194125235080719,
				-3.2487215995788574
			],
			"type":"VEC3"
		},
		{
			"bufferView":45,
			"componentType":5126,
			"count":280,
			"type":"VEC3"
		},
		{
			"bufferView":46,
			"componentType":5126,
			"count":280,
			"type":"VEC2"
		},
		{
			"bufferView":47,
			"componentType":5123,
			"count":420,
			"type":"SCALAR"
		},
		{
			"bufferView":48,
			"componentType":5126,
			"count":46,
			"max":[
				0.4574081301689148,
				-0.08281245827674866,
				0.988493800163269
			],
			"min":[
				-0.4574081301689148,
				-0.5101370811462402,
				0.35603463649749756
			],
			"type":"VEC3"
		},
		{
			"bufferView":49,
			"componentType":5126,
			"count":46,
			"type":"VEC3"
		},
		{
			"bufferView":50,
			"componentType":5126,
			"count":46,
			"type":"VEC2"
		},
		{
			"bufferView":51,
			"componentType":5123,
			"count":66,
			"type":"SCALAR"
		},
		{
			"bufferView":52,
			"componentType":5126,
			"count":98,
			"max":[
				0.47334176301956177,
				0.26590853929519653,
				0.5667999386787415
			],
			"min":[
				-0.47334176301956177,
				-0.46747392416000366,
				-0.7051628232002258
			],
			"type":"VEC3"
		},
		{
			"bufferView":53,
			"componentType":5126,
			"count":98,
			"type":"VEC3"
		},
		{
			"bufferView":54,
			"componentType":5126,
			"count":98,
			"type":"VEC2"
		},
		{
			"bufferView":55,
			"componentType":5123,
			"count":138,
			"type":"SCALAR"
		},
		{
			"bufferView":56,
			"componentType":5126,
			"count":40,
			"max":[
				0.47642892599105835,
				0.2907889783382416,
				0.7190701365470886
			],
			"min":[
				-0.47642892599105835,
				-0.25893130898475647,
				-0.013931929133832455
			],
			"type":"VEC3"
		},
		{
			"bufferView":57,
			"componentType":5126,
			"count":40,
			"type":"VEC3"
		},
		{
			"bufferView":58,
			"componentType":5126,
			"count":40,
			"type":"VEC2"
		},
		{
			"bufferView":59,
			"componentType":5123,
			"count":54,
			"type":"SCALAR"
		},
		{
			"bufferView":60,
			"componentType":5126,
			"count":16,
			"max":[
				0.19062814116477966,
				0.2907889783382416,
				1.0862516164779663
			],
			"min":[
				-0.19062814116477966,
				0.14631983637809753,
				0.5575185418128967
			],
			"type":"VEC3"
		},
		{
			"bufferView":61,
			"componentType":5126,
			"count":16,
			"type":"VEC3"
		},
		{
			"bufferView":62,
			"componentType":5126,
			"count":16,
			"type":"VEC2"
		},
		{
			"bufferView":63,
			"componentType":5126,
			"count":16,
			"max":[
				0.4455749988555908,
				0.28079620003700256,
				1.0862516164779663
			],
			"min":[
				-0.4455749988555908,
				-0.13046413660049438,
				0.6177749037742615
			],
			"type":"VEC3"
		},
		{
			"bufferView":64,
			"componentType":5126,
			"count":16,
			"type":"VEC3"
		},
		{
			"bufferView":65,
			"componentType":5126,
			"count":16,
			"type":"VEC2"
		}
	],
	"bufferViews":[
		{
			"buffer":0,
			"byteLength":720,
			"byteOffset":0,
			"target":34962
		},
		{
			"buffer":0,
			"byteLength":720,
			"byteOffset":720,
			"target":34962
		},
		{
			"buffer":0,
			"byteLength":480,
			"byteOffset":1440,
			"target":34962
		},
		{
			"buffer":0,
			"byteLength":168,
			"byteOffset":1920,
			"target":34963
		},
		{
			"buffer":0,
			"byteLength":600,
			"byteOffset":2088,
			"target":34962
		},
		{
			"buffer":0,
			"byteLength":600,
			"byteOffset":2688,
			"target":34962
		},
		{
			"buffer":0,
			"byteLength":400,
			"byteOffset":3288,
			"target":34962
		},
		{
			"buffer":0,
			"byteLength":144,
			"byteOffset":3688,
			"target":34963
		},
		{
			"buffer":0,
			"byteLength":1248,
			"byteOffset":3832,
			"target":34962
		},
		{
			"buffer":0,
			"byteLength":1248,
			"byteOffset":5080,
			"target":34962
		},
		{
			"buffer":0,
			"byteLength":832,
			"byteOffset":6328,
			"target":34962
		},
		{
			"buffer":0,
			"byteLength":312,
			"byteOffset":7160,
			"target":34963
		},
		{
			"buffer":0,
			"byteLength":1104,
			"byteOffset":7472,
			"target":34962
		},
		{
			"buffer":0,
			"byteLength":1104,
			"byteOffset":8576,
			"target":34962
		},
		{
			"buffer":0,
			"byteLength":736,
			"byteOffset":9680,
			"target":34962
		},
		{
			"buffer":0,
			"byteLength":264,
			"byteOffset":10416,
			"target":34963
		},
		{
			"buffer":0,
			"byteLength":2808,
			"byteOffset":10680,
			"target":34962
		},
		{
			"buffer":0,
			"byteLength":2808,
			"byteOffset":13488,
			"target":34962
		},
		{
			"buffer":0,
			"byteLength":1872,
			"byteOffset":16296,
			"target":34962
		},
		{
			"buffer":0,
			"byteLength":648,
			"byteOffset":18168,
			"target":34963
		},
		{
			"buffer":0,
			"byteLength":2232,
			"byteOffset":18816,
			"target":34962
		},
		{
			"buffer":0,
			"byteLength":2232,
			"byteOffset":21048,
			"target":34962
		},
		{
			"buffer":0,
			"byteLength":1488,
			"byteOffset":23280,
			"target":34962
		},
		{
			"buffer":0,
			"byteLength":552,
			"byteOffset":24768,
			"target":34963
		},
		{
			"buffer":0,
			"byteLength":192,
			"byteOffset":25320,
			"target":34962
		},
		{
			"buffer":0,
			"byteLength":192,
			"byteOffset":25512,
			"target":34962
		},
		{
			"buffer":0,
			"byteLength":128,
			"byteOffset":25704,
			"target":34962
		},
		{
			"buffer":0,
			"byteLength":48,
			"byteOffset":25832,
			"target":34963
		},
		{
			"buffer":0,
			"byteLength":384,
			"byteOffset":25880,
			"target":34962
		},
		{
			"buffer":0,
			"byteLength":384,
			"byteOffset":26264,
			"target":34962
		},
		{
			"buffer":0,
			"byteLength":256,
			"byteOffset":26648,
			"target":34962
		},
		{
			"buffer":0,
			"byteLength":96,
			"byteOffset":26904,
			"target":34963
		},
		{
			"buffer":0,
			"byteLength":360,
			"byteOffset":27000,
			"target":34962
		},
		{
			"buffer":0,
			"byteLength":360,
			"byteOffset":27360,
			"target":34962
		},
		{
			"buffer":0,
			"byteLength":240,
			"byteOffset":27720,
			"target":34962
		},
		{
			"buffer":0,
			"byteLength":84,
			"byteOffset":27960,
			"target":34963
		},
		{
			"buffer":0,
			"byteLength":456,
			"byteOffset":28044,
			"target":34962
		},
		{
			"buffer":0,
			"byteLength":456,
			"byteOffset":28500,
			"target":34962
		},
		{
			"buffer":0,
			"byteLength":304,
			"byteOffset":28956,
			"target":34962
		},
		{
			"buffer":0,
			"byteLength":108,
			"byteOffset":29260,
			"target":34963
		},
		{
			"buffer":0,
			"byteLength":552,
			"byteOffset":29368,
			"target":34962
		},
		{
			"buffer":0,
			"byteLength":552,
			"byteOffset":29920,
			"target":34962
		},
		{
			"buffer":0,
			"byteLength":368,
			"byteOffset":30472,
			"target":34962
		},
		{
			"buffer":0,
			"byteLength":132,
			"byteOffset":30840,
			"target":34963
		},
		{
			"buffer":0,
			"byteLength":3360,
			"byteOffset":30972,
			"target":34962
		},
		{
			"buffer":0,
			"byteLength":3360,
			"byteOffset":34332,
			"target":34962
		},
		{
			"buffer":0,
			"byteLength":2240,
			"byteOffset":37692,
			"target":34962
		},
		{
			"buffer":0,
			"byteLength":840,
			"byteOffset":39932,
			"target":34963
		},
		{
			"buffer":0,
			"byteLength":552,
			"byteOffset":40772,
			"target":34962
		},
		{
			"buffer":0,
			"byteLength":552,
			"byteOffset":41324,
			"target":34962
		},
		{
			"buffer":0,
			"byteLength":368,
			"byteOffset":41876,
			"target":34962
		},
		{
			"buffer":0,
			"byteLength":132,
			"byteOffset":42244,
			"target":34963
		},
		{
			"buffer":0,
			"byteLength":1176,
			"byteOffset":42376,
			"target":34962
		},
		{
			"buffer":0,
			"byteLength":1176,
			"byteOffset":43552,
			"target":34962
		},
		{
			"buffer":0,
			"byteLength":784,
			"byteOffset":44728,
			"target":34962
		},
		{
			"buffer":0,
			"byteLength":276,
			"byteOffset":45512,
			"target":34963
		},
		{
			"buffer":0,
			"byteLength":480,
			"byteOffset":45788,
			"target":34962
		},
		{
			"buffer":0,
			"byteLength":480,
			"byteOffset":46268,
			"target":34962
		},
		{
			"buffer":0,
			"byteLength":320,
			"byteOffset":46748,
			"target":34962
		},
		{
			"buffer":0,
			"byteLength":108,
			"byteOffset":47068,
			"target":34963
		},
		{
			"buffer":0,
			"byteLength":192,
			"byteOffset":47176,
			"target":34962
		},
		{
			"buffer":0,
			"byteLength":192,
			"byteOffset":47368,
			"target":34962
		},
		{
			"buffer":0,
			"byteLength":128,
			"byteOffset":47560,
			"target":34962
		},
		{
			"buffer":0,
			"byteLength":192,
			"byteOffset":47688,
			"target":34962
		},
		{
			"buffer":0,
			"byteLength":192,
			"byteOffset":47880,
			"target":34962
		},
		{
			"buffer":0,
			"byteLength":128,
			"byteOffset":48072,
			"target":34962
		}
	],
	"buffers":[
		{
			"byteLength":48200,
			"uri":"Bodyy123.bin"
		}
	]
}
